<?xml version="1.0" encoding="UTF-8"?>
<svg version="1.1" viewBox="0 0 2048 1638" width="600" height="480" xmlns="http://www.w3.org/2000/svg">
<path transform="translate(0)" d="m0 0h2048v1638h-2048z" fill="#FCFCFC"/>
<path transform="translate(838,362)" d="m0 0h27l16 3 17 7 12 9 9 10 8 13 5 14 4 18 1 10 9 10 3 3 3 1-3-24-3-18-5-13-5-10 1-7 8-7 5-2 7-1h33l14 3 2 2v8l-6 23-4 16-1 8v25l3 18 2 7h24l21 2 20 4 21 7 19 9 12 8 11 9 10 10 10 13 10 17 8 18 5 15 3 15 16-1 2-12 8-18 8-10 7-6 11-4h7l11 4 8 6 6 7 5 11 4 17 1 7v31l-4 20-7 14-8 8-10 5h-10l-11-4-1-4 4-18 1-8v-11l-3-10-5-6-8-2v2l5 2 4 6 2 9v11l-4 20-6 18-8 16-7 12-8 10-9 10-10 9-13 8-8 4-18 36-16 27-14 22-13 18-9 10-11 8-11 5-8 2h-13l-16-8-18-10-9-3h-13l-11 6-10 9-10 7-11 4h-11l-10-4-11-6-16-12-10-8-14-12-32-32-9-11-13-16-14-20-12-20-8-15-8-21-1-4 5-1h8l16-3 12-5 13-9 8-8 8-13 5-10 2-7 5 1 24 1-1 10-1 5v29l3 23 5 17 8 16 7 9 11 9 14 6 11 2 7 1h10l14-3 10-4 9-7 6-8 3-7 1-5v-13l-3-13-4-8-5-6-9-5-4-1h-13l-9 2-4 2-1 2v6l5 6 8 6-4 1-11-4-10-6-10-9-6-7-7-14-4-15-1-6v-10l27-1 7-3 5-6v-6l-4-7v-2l-5-1h-79l-2-4-3-18-7-16-8-12-7-7-13-9-11-5-12-3-9-1v-3l9-11 4-4h2v-2l11-9 18-12 19-10 18-7 25-7 22-4 23-3-2-5-10-15-3-2-21-2-15-4-19-9-13-9-13-12-9-10-11-18-5-14-2-10v-13l7-3 17-4z" fill="#90C04A"/>
<path transform="translate(1226,564)" d="m0 0h7l11 4 8 6 6 7 5 11 4 17 1 7v31l-4 20-7 14-8 8-10 5h-10l-11-4-1-4 4-18 1-8v-11l-3-10-5-6-8-2v2l5 2 4 6 2 9v11l-4 20-6 18-8 16-7 12-8 10-9 10-10 9-13 8-6 3-2-1 10-24 10-30 7-30 3-11 6-7 8-14 3-8-15-1-2-26 16-1 2-12 8-18 8-10 7-6z" fill="#315736"/>
<path transform="translate(1659,997)" d="m0 0h33l15 26 12 20 13 22 2 1-1-19v-49l1-1h26v111l-1 3h-31l-6-8-34-58v-2h-2v49l-1 19h-26z" fill="#315736"/>
<path transform="translate(838,362)" d="m0 0h27l16 3 17 7 12 9 9 10 8 13 5 14 4 18 1 9h-3l-9-6-17-11-22-12-18-8-18-5 7 8 24 24 7 8 13 15 9 12v1h-15l-21-5-19-9-13-9-13-12-9-10-11-18-5-14-2-10v-13l7-3 17-4z" fill="#458349"/>
<path transform="translate(531,997)" d="m0 0h30l17 43 7 19 10 26 9 24v2h-29l-5-12-4-9h-41l-8 20-1 1h-29l3-10 9-23 13-34 16-41z" fill="#315736"/>
<path transform="translate(1319,997)" d="m0 0h31l11 30 8 20 8 21 6 15 10 27v1h-29l-4-9-5-12-42-1-3 10-5 12h-29l1-6 19-49 16-41z" fill="#315736"/>
<path transform="translate(846,997)" d="m0 0h25l1 1 1 43 47 1v-44l1-1h25l1 1v113h-27l-1-44-47-1v45h-26l-1-1v-112z" fill="#325937"/>
<path transform="translate(239,997)" d="m0 0h27v45h48v-44l1-1h26v106l-1 8h-25l-1-1v-44h-48v44l-1 1h-25l-1-1z" fill="#426647"/>
<path transform="translate(1029,997)" d="m0 0h25l1 2v43h48v-45h26v114h-26l-1-44-47-1v16l-1 29h-26v-113z" fill="#315836"/>
<path transform="translate(841,664)" d="m0 0 5 1 24 1-1 10-1 5v29l3 23 5 17 8 16 7 9 11 9 14 6 11 2 7 1h10l10-1-2 2-19 7-13 3h-18l-15-4-14-8-8-8-11-18-5-13-4-20-2-12-11 10-14 9-11 5-17 5-5 1h-9l-9-21-3-10 5-1h8l16-3 12-5 13-9 8-8 8-13 5-10z" fill="#458449"/>
<path transform="translate(374,997)" d="m0 0h80v23l-1 1h-53l1 20 42 1 1 1v22l-1 1h-43l1 20 53 1v24h-81v-113z" fill="#436647"/>
<path transform="translate(1546,997)" d="m0 0h80l1 3-1 21-53 1-1 20h44v23l-1 1h-38l-4 1v19l1 1h52v24h-80l-1-1v-110z" fill="#315736"/>
<path transform="translate(1173,997)" d="m0 0h70v23l-1 1h-53v21h43l1 1v17l-1 6h-43v21h54v24h-81v-113z" fill="#325837"/>
<path transform="translate(1395,997)" d="m0 0h30l4 10 10 26 8 20 6 16v2h2l3-11 11-27 13-34 1-2h29l-1 6-14 36-7 19-8 20-12 31-2 2h-29l-5-12-15-38-8-21-12-31-4-9z" fill="#315736"/>
<path transform="translate(725,997)" d="m0 0h88v23l-14 1h-17v90h-26l-1-1v-88l-30-2z" fill="#325837"/>
<path transform="translate(637,997)" d="m0 0h26l1 1v89h50l1 1v22l-1 1h-77l-1-35v-61z" fill="#325937"/>
<path transform="translate(1213,641)" d="m0 0h2l2 9v11l-4 20-6 18-8 16-7 12-8 10-9 10-10 9-13 8-6 3-2-1 10-24 10-30 7-30 3-11 6-7 8-14 3-5 7 1 12-2z" fill="#325836"/>
<path transform="translate(771,580)" d="m0 0h13l11 4 8 6 7 7 8 14 5 14 2 20-2 15-4 14-8 14-8 9-10 6-8 3h-16l-11-4-8-6-3-5v-6l4-5 7-1 11 7 4 1h8l10-5 7-8 5-12 2-9v-19l-3-12-6-12-5-6-7-4-10-1-10 4-4 2-7-1-4-5v-7l5-5 6-4z" fill="#426546"/>
<path transform="translate(998,490)" d="m0 0 1 4-9 6-9 4-15 3-19 3-17 5-26 11-35 15-19 7-9 2h-7l1-4 11-12 9-8 15-10 23-11 18-7 7-3h50l20-2z" fill="#45844A"/>
<path transform="translate(1565 1e3)" d="m0 0 28 2-1 5-4 3-10 1-1 2-4 2 52 1v-15h1v16l-53 1-1 20h44v23l-1 1h-38l-4 1v19l1 1h52v24h-80v-1l10-1h50l-1-1-6-2-2-1-1 2v-2l-5 1-6-1-4 1-7-1-2-3 8-4 25 1 1-2 1-1-14-1h-13l-5-2-2-4-3-2v-22l-3-6v-7l-1-4 2-8 1-16-4-1-3-5-1-8 2-5z" fill="#436747"/>
<path transform="translate(374,1045)" d="m0 0 5 1v2l5 1 7 2 8 1v2l2 1-1 6-13-1-5-1h-6l1 9 6 4 13 1 3-1 1 15 54 1v22h-80z" fill="#315736"/>
<path transform="translate(1734,997)" d="m0 0h26v111l-1 3h-31v-1l16-1-2-6 1-5 3-3 2-3 7-3 2-9 1-4-16-3-5-2v-2l-5-2 2-1-1-19v-49z" fill="#436747"/>
<path transform="translate(530,1016)" d="m0 0 8 2 1 5 12-5 10-2 7 4 2-1 9 24-2 5v25l-1 1h-12l-5-2v-13l2-6-1-12-4-9-9-1-2 5 3-1 2 6 1 7 5 13v5l-7 1-1 6-6 1h-17l-1-3 1-41 1-10z" fill="#426546"/>
<path transform="translate(637,997)" d="m0 0h26l1 1v89h-2l1-15-7 2-19 1-1-60z" fill="#436547"/>
<path transform="translate(757,1025)" d="m0 0h1v5l3-1 14 2 2 4 1 5 2 7 1 14v49h-26l1-82z" fill="#315736"/>
<path transform="translate(1212,570)" d="m0 0 2 1-8 8v-3zm-8 9 2 1-1 4-3 1 1 3 7 4 5 4 5 8 3 12v10l-1 7-3 1-2 2-5-4-6-1v2l5 2 3 4-2 4-2 2-14 2-6-1 1-4-15-1-2-26 16-1 2-12 8-18z" fill="#426546"/>
<path transform="translate(1093,659)" d="m0 0h2l-2 4-4 5 1 27-2 9-5 8-5 3h-6l-8-4-7-9-4-10-4-16-4-4-6-4 4-1 6 2 7 1h15l10-3 11-7z" fill="#448349"/>
<path transform="translate(1659,1030)" d="m0 0 8 1 1 1 2 42h11l3 1v-10h1v46h-26z" fill="#315736"/>
<path transform="translate(1433,1020)" d="m0 0 2 3 11 28 7 18v2h2l3-11 2-5 7 2 5 2-3 6-5 4-3 3-10 3-10-1-9-3-8-7-3-3-2-6v-9l2-8 7-15h3l1-2z" fill="#426546"/>
<path transform="translate(1350,999)" d="m0 0 2 4 10 26 12 31 4 10-1 3-3 1h-23l-3-5-1-6 1-3 1-52z" fill="#426546"/>
<path transform="translate(1395,997)" d="m0 0h30l8 20v5l-5 1-2 6-5 12-1 11v6h-2l-6-15-12-32-5-11z" fill="#325837"/>
<path transform="translate(315,1064)" d="m0 0 8 6 2 1 13 1 2-2v41h-25l-1-1v-45z" fill="#325937"/>
<path transform="translate(1260,587)" d="m0 0 2 2 3 10v4l-11-1-3 3-1 8-1 27-1 4-2 1h-12l-1-3v-46l2-6h12l4 3h2l2-3 4-1z" fill="#436547"/>
<path transform="translate(1660,1018)" d="m0 0h10l8 4 6 8 2 8v4l2 1h-2v49h-1l-1-17h-14l-1-1-2-42-8-2v-11z" fill="#436547"/>
<path transform="translate(240,1034)" d="m0 0h1l1 24v14h18l5-1v40h-25z" fill="#315736"/>
<path transform="translate(1267,577)" d="m0 0 6 2 7 6 4 8 3 11 2 19v15l-3 21-6 11-7 6-3-1 4-15 2-15v-29l-3-19-5-17z" fill="#426646"/>
<path transform="translate(799,678)" d="m0 0h2l-1 6-2 4h-2l1 6 7-1v3l-9 6-10 4h-16l-11-4-8-6-3-5v-6l4-5 7-1 11 7 4 1h8l10-5z" fill="#426546"/>
<path transform="translate(1593,1087)" d="m0 0h33v24h-80v-1l10-1h50l-1-1-6-2-2-1-1 2v-2l-5 1-6-1-4 1-7-1-2-3 8-4 25 1 1-2 1-1-14-1h-13l-5-2-2-5z" fill="#426546"/>
<path transform="translate(735 1e3)" d="m0 0h14l3 1h6l8 4h11l2 1-1 10 2 1h19v1h-17v90h-26v-1h25l-1-49-1-14-3-9-1-7-17-1-2-2v-5l10-5-1-4h-7l-9 3-13-2-5-4 1-5z" fill="#436647"/>
<path transform="translate(1546,997)" d="m0 0h80v1h-70v11l-4 2h-5v5l8 1 1 1 1 8-1 40-1 5-1 3h-7v34l-2 2v-110z" fill="#436547"/>
<path transform="translate(1116,590)" d="m0 0 4 1 5 8 2 7-1 9-3 4 1 4 8 7 5 10h-3l-8-7-14-8-7-1h-10l-4 2-3-1 7-6 9-2v-15l4-7 5-4z" fill="#45844A"/>
<path transform="translate(1e3 597)" d="m0 0h10l4 5 2 7v8l-1 7 9 1 6 3 1 4-9-3h-9l-2 2-8 3-8 4-12 11-2 1 2-6 9-10 5-5v-6l-2-5 1-13z" fill="#448349"/>
<path transform="translate(748,626)" d="m0 0h21l6 7 3 8-1 8-3 6-6 5h-19l-5-2 1-3 10-1 3-5 1-3v-7l-4-6-1-1-9-1 1-4z" fill="#426546"/>
<path transform="translate(639,1030)" d="m0 0h8l5 3 4 4 7 3v13l-9 3-7 6-6 1-4-4v-27z" fill="#315736"/>
<path transform="translate(1513,1190)" d="m0 0 13 1 5 5 1 2v6l-5 5-1 4 6 9v3l-4-1-4-5-5-7-2-1h-6l-1 2v12l-4-1-1-1v-31l1-1z" fill="#508D4A"/>
<path transform="translate(919,1190)" d="m0 0 11 1 4 2 4 7-2 6-5 4 1 5 5 8v2l-5-2-6-9-3-3-8-1-1 14-4-1v-31l1-1z" fill="#4D8949"/>
<path transform="translate(1101,1190)" d="m0 0 11 1 6 5 1 8-5 5-2 1 2 5 4 7v3l-4-1-7-11v-2l-10-1-1 15h-3l-1-2v-31l1-1z" fill="#4C8849"/>
<path transform="translate(374,998)" d="m0 0h59l-1 6h-4l-1 2h-7v-2l-14 1-3 1-7-1-10 1-2 10v4l-5 2h-3v9l-1 9h-1z" fill="#315736"/>
<path transform="translate(1021,1194)" d="m0 0h7l6 4 3 4 1 8-3 6-6 5h-9l-5-3-4-6v-9l4-6z" fill="#FDFDFD"/>
<path transform="translate(1434,1194)" d="m0 0h7l6 4 4 6v7l-4 6-5 4h-9l-6-4-3-6v-7l4-6 3-3z" fill="#FDFDFD"/>
<path transform="translate(315,997)" d="m0 0h25v24l-1-3-8-2-1-3-4 1v6l-6 4h-2l-1 10-2 2-1-38z" fill="#325837"/>
<path transform="translate(878,1194)" d="m0 0h8l5 3 4 7v8l-7 8-2 1h-8l-5-3-4-5-1-8 3-6 4-4z" fill="#FDFDFD"/>
<path transform="translate(671,1190)" d="m0 0 13 1 6 6v7l-3 5-4 2-7 1h-8v12l-3 1-2-5v-28l1-1z" fill="#528E49"/>
<path transform="translate(806,634)" d="m0 0 2 2 1 10 3 3 3 5v9l-2 10-3 1 2 13-6 7-10 1-1-3 1-4h2l1-4 2-6-8 4 2-4 6-10 4-15z" fill="#325837"/>
<path transform="translate(1505,1011)" d="m0 0 2 1-3 9-15 39-7 18-2-1 3-21 2 1-1 2h2l-1-17-2-2v-7l4-10 9-5 7-4z" fill="#426547"/>
<path transform="translate(637,997)" d="m0 0h26v23l-10-2h-11l-5-2z" fill="#335838"/>
<path transform="translate(687,1094)" d="m0 0h13l4 2v2l3 1 1 3-2 3h-3v2h-8l-9-1h-12l-17-2v-2l-2-2 2-2 9-3h10z" fill="#436547"/>
<path transform="translate(414,1191)" d="m0 0 4 1 8 18 5 12v3l-4-1-4-7-3-1h-12l-5 8-3 1 1-7 11-25z" fill="#538C48"/>
<path transform="translate(710,1191)" d="m0 0 4 1 7 15 7 16v2l-4-1-5-7-15-1-4 8-3 1-1-2 10-25z" fill="#498649"/>
<path transform="translate(1735,998)" d="m0 0h24v7l-5 2-4-1h-7l-1 1 2 1 1 4h9l3 2v3l-12 2-9 4-1 12h-1l-1-8v-24z" fill="#325837"/>
<path transform="translate(512,1190)" d="m0 0 4 4 10 23 2 5v3l-4-1-4-7-4-1-12 1-4 7h-3l1-5 7-17 6-11z" fill="#508A49"/>
<path transform="translate(1235,1191)" d="m0 0 5 1 13 30v3l-4-1-5-8h-14l-5 8h-3l1-5 9-22z" fill="#4E8A49"/>
<path transform="translate(436,1095)" d="m0 0 10 1 1 9-2 2h-10v-2l-3 1-10-1-6-1h-15l-8-1-1-4 4-1h8l2-2 8 1 6-1z" fill="#436547"/>
<path transform="translate(451 1e3)" d="m0 0 2 3v17h-52l1-7 8-1 4 1 5-2h5l4-3 1 3 4 1v2h4 10v-2h2l-1-3z" fill="#315736"/>
<path transform="translate(1544,1191)" d="m0 0 5 1 15 20 4 4-1-24 4-1 1 1v32l-2 1-6-5-14-19-2-2v25l-2 1-2-1-1-7v-24z" fill="#548E4A"/>
<path transform="translate(1197,602)" d="m0 0 7 1 3 8 1 10-1 8 4 1-6 2-7 3-6-1-1-3h-2l1-3 6-4 1-4-4-9 1-5 1-3z" fill="#315736"/>
<path transform="translate(1434,1190)" d="m0 0h7l8 4 4 5 2 6-1 10-5 6-9 4-9-1-6-4-4-6-1-3v-8l4-8 6-4zm0 4-5 3-4 5-1 2v7l3 6 6 4h9l7-6 2-4v-7l-4-6-6-4z" fill="#528C49"/>
<path transform="translate(878,1190)" d="m0 0h7l7 3 6 7 1 3v9l-4 7-7 5-3 1h-7l-6-3-6-7-2-5 1-9 4-6 5-4zm0 4-5 3-4 5-1 8 3 6 4 4 3 1h8l7-6 2-3v-8l-4-7-5-3z" fill="#528D49"/>
<path transform="translate(507,1096)" d="m0 0h10l-2 1v2l5-2 1 3-4 10-1 1h-29l3-10 2-3v3h2l1-3h2v3l6-1v-2h4z" fill="#426546"/>
<path transform="translate(1021,1190)" d="m0 0 10 1 7 5 3 6v12l-7 8-7 3-9-1-6-4-5-8v-10l6-9zm0 4-7 4-3 5v9l4 6 5 3h9l7-6 2-5-1-8-5-6-4-2z" fill="#528D49"/>
<path transform="translate(508,1055)" d="m0 0 3 1 1 3v10l-3 17h-2v3l-5 5-4 3-5-1 3-10z" fill="#426546"/>
<path transform="translate(1330,1191)" d="m0 0h4l1 14h18l1-14h4v33l-4-1-1-13h-18l-1 14h-4z" fill="#5B9449"/>
<path transform="translate(1758,1079)" d="m0 0h1v32h-31v-1l16-1-2-6 1-5 3-3 2-3 7-3 2-9z" fill="#436547"/>
<path transform="translate(1333,1038)" d="m0 0 3 1 9 23v3h-21l-1-2z" fill="#FDFDFD"/>
<path transform="translate(544,1038)" d="m0 0h3l9 23v4h-21l1-6z" fill="#FDFDFD"/>
<path transform="translate(1186,1191)" d="m0 0h24v3l-19 1v10l17 1v3l-17 1v10l18 1 1 3-5 1h-17l-2-1z" fill="#4D8749"/>
<path transform="translate(780,1191)" d="m0 0h24v3l-19 1-1 11h18v3l-17 1v10l18 1 1 3-10 1h-11l-3-2z" fill="#4C8649"/>
<path transform="translate(637,1190)" d="m0 0 8 1 5 4 1 6-4-2-5-4h-7l-3 3 1 4 5 3 10 3 4 3-1 9-5 4-2 1h-8l-6-4-3-4v-3l4 2 5 4 7 1 4-3 1-6-12-3-7-4-1-1v-8l5-5z" fill="#538C48"/>
<path transform="translate(1054,1191)" d="m0 0 3 1 1 21 3 6 7 2 5-3 3-5 1-22 4 1v22l-4 7-7 4h-7l-6-4-3-4-2-11v-13z" fill="#55904A"/>
<path transform="translate(575,1191)" d="m0 0h24l-1 3-18 1v10l17 1v3l-17 1v10l18 1 1 3-11 1h-9l-4-2z" fill="#4F8A49"/>
<path transform="translate(1546,997)" d="m0 0h80v1h-70v11l-4 2h-5v97l-2 2v-110z" fill="#437148"/>
<path transform="translate(1752,1030)" d="m0 0 5 1v8l-2 3-2 9-4 2-1 4h-5l-1-2-1-14 1-8 2-2z" fill="#315736"/>
<path transform="translate(1584,1191)" d="m0 0h23v3l-19 1v10l16 1v3l-16 1v11h18l1 3-21 1-3-2v-31z" fill="#4F8B49"/>
<path transform="translate(1467,1191)" d="m0 0h3l1 21 3 7 7 2 5-3 3-4 1-23h4v24l-4 6-6 4h-8l-6-4-4-8v-21z" fill="#4E8B4A"/>
<path transform="translate(469,1190)" d="m0 0 8 1 6 5 1 5-4-2-5-4h-7l-3 2v5l9 4 8 3 3 4-1 6-7 6h-8l-7-4-2-3 1-4 7 6 8 1 4-4v-4l-16-6-4-5 1-7 5-4z" fill="#4F8847"/>
<path transform="translate(1176,641)" d="m0 0h13l2 1-3 10-9 15-5 4 1-27z" fill="#FDFDFD"/>
<path transform="translate(1147,1191)" d="m0 0h3l1 14h19l1-14h3l1 3v30h-4l-1-13-1-1-18-1v15h-4z" fill="#4E8A49"/>
<path transform="translate(752,1190)" d="m0 0 9 1 7 6v4l-4-2-3-3-3-1h-8l-6 4-2 4v9l4 6 7 3 8-2 5-4h2l-2 5-6 4-10 1-8-5-4-5-1-3v-10l5-8 5-3z" fill="#508C49"/>
<path transform="translate(831,1191)" d="m0 0h25v3h-20v12l15-1 2 1-1 4-16-1-1 15h-4z" fill="#528D49"/>
<path transform="translate(264,1010)" d="m0 0h1l1 33h13v1l-9 1-1 4h-5l-1-3-4-2-3-11 1-7 3-10 2-3h2z" fill="#315736"/>
<path transform="translate(540,1191)" d="m0 0h23v3l-18 1-1 8v3h17l-1 4-16-1v15l-2 1-3-2v-24z" fill="#528E49"/>
<path transform="translate(588,1087)" d="m0 0 3 3 4 11 3 4v4h-3v-2h-3v2l8 1v1h-25l2-1-2-5 5-2 3 1v-7h3l-1-5h3z" fill="#436547"/>
<path transform="translate(669,1194)" d="m0 0h13l4 4 1 4-3 5-3 1h-13l-1-3v-8z" fill="#FDFDFD"/>
<path transform="translate(1471,1098)" d="m0 0 2 1-3 10-2 2h-29l3-2 2-1 1-3 6-3h2v-2h5v2h2v2l8-1 2-4z" fill="#426546"/>
<path transform="translate(965,1190)" d="m0 0 6 2 8 13 3-1 7-11 2-2h3l-1 4-6 10-4 7-1 12h-3l-1-7-2-8-11-17z" fill="#508B49"/>
<path transform="translate(1294,614)" d="m0 0 4 2 5 7 1 3v7l-3 7-5 6h-2z" fill="#416745"/>
<path transform="translate(916,1194)" d="m0 0h12l5 4 1 5-5 4h-14l-1-1v-10z" fill="#FDFDFD"/>
<path transform="translate(1511,1194)" d="m0 0h12l4 2 2 6-5 5h-14l-1-2v-9z" fill="#FDFDFD"/>
<path transform="translate(1098,1194)" d="m0 0h12l5 4v6l-4 3h-14l-1-1v-11z" fill="#FDFDFD"/>
<path transform="translate(1372,1098)" d="m0 0 7 1 1 3 2-1 4 3h3v5l1 2h-26l1-3-2-3 6-1z" fill="#436547"/>
<path transform="translate(1619,1190)" d="m0 0 5 2 6 9 2 4h3l6-10 5-5 2 1-2 5-7 11-3 5-1 12h-3l-1-12-7-12-5-7z" fill="#4D8246"/>
<path transform="translate(1291,1191)" d="m0 0h28v2l-2 1-9 1-1 29h-4l-1-30h-10z" fill="#548D49"/>
<path transform="translate(1265,1191)" d="m0 0 4 1v29h19l1 3-21 1-3-1-1-20v-12z" fill="#599349"/>
<path transform="translate(1405,1191)" d="m0 0h4v25l-4 6-5 3h-6l-6-4-2-3v-3l5 2v2l9 1 3-3 1-3z" fill="#4B8849"/>
<path transform="translate(1434,1190)" d="m0 0h7l8 4 4 5 1 3-1 6h-2l-3-8-5-4-2-1h-7l-5 3-4 4-5 3 2-7 4-5z" fill="#538D49"/>
<path transform="translate(1354,1191)" d="m0 0h4v33l-4-1-1-13-13-2-1-2 14-1z" fill="#518C49"/>
<path transform="translate(1568,1191)" d="m0 0 4 1v32l-2 1-6-5-2-3 1-4 5 3-1-24z" fill="#4E8949"/>
<path transform="translate(413,1195)" d="m0 0 1 3-5 15h12l-1 3h-12l-5 8-3 1 1-7 9-21z" fill="#4D8748"/>
<path transform="translate(1111,592)" d="m0 0h5l-6 7-2 4v19h-13v2l-4 2-3-1 7-6 9-2v-15l4-7z" fill="#436D47"/>
<path transform="translate(1284,649)" d="m0 0 2 2v8l-6 11-7 6-3-1 4-15 5 1 3-1v-10z" fill="#335B38"/>
<path transform="translate(872,1196)" d="m0 0v3l-3 6 1 8 5 6 5 2 8 1v2l-3 1h-7l-6-3-6-7-2-5 1-9 3-3z" fill="#4A8349"/>
<path transform="translate(648 1e3)" d="m0 0 1 2 8 1v8l-2 3-9-1v-2l-3-1 1-8z" fill="#436547"/>
<path transform="translate(1077,1191)" d="m0 0 4 1v22l-4 7-4 3-3-1 6-10z" fill="#4A884A"/>
<path transform="translate(1223,1096)" d="m0 0 10 1 2 4-4 3-13-1-9-2-1-2 10-1z" fill="#436547"/>
<path transform="translate(1699,1058)" d="m0 0h6l6 4 2 4v5l-5 3-3-4-2 1-3-7z" fill="#426446"/>
<path transform="translate(511,1198)" d="m0 0h3l5 13v2h-13l1-7z" fill="#FDFDFD"/>
<path transform="translate(711,1197)" d="m0 0h2l5 12-1 4h-12l3-10z" fill="#FDFDFD"/>
<path transform="translate(1236,1197)" d="m0 0 3 1 4 10-1 5h-11l1-6z" fill="#FDFDFD"/>
<path transform="translate(1115,1203)" d="m0 0 3 1v2l-6 4 2 5 4 7v3l-4-1-7-11v-2l-8-2v-2l12-1z" fill="#497F48"/>
<path transform="translate(414,1197)" d="m0 0h2l5 12v4h-12l1-6z" fill="#FDFDFD"/>
<path transform="translate(719,1204)" d="m0 0 2 3 7 16v2l-4-1-5-7-13-1 2-1v-2l9-1v-4h2z" fill="#589249"/>
<path transform="translate(1038,1202)" d="m0 0h3v12l-7 8-7 3h-6v-3l10-3 5-6z" fill="#467F46"/>
<path transform="translate(339,1047)" d="m0 0h1v18l-7-3 1-6h-4l-1-5 1-1h8z" fill="#315736"/>
<path transform="translate(1011,1199)" d="m0 0h2l-1 4v9l4 6 4 2 6 1v1h-5v2l-5-1-6-5-3-6v-10h4z" fill="#4B8247"/>
<path transform="translate(1471,1033)" d="m0 0 1 3v1l2-1-1 9-2 5-1 1h-6l-1-3 4-10 3-3z" fill="#426546"/>
<path transform="translate(637,1190)" d="m0 0 8 1 5 4 1 6-4-2-5-4h-7l-5 4-2-1 2-5z" fill="#5A944A"/>
<path transform="translate(469,1190)" d="m0 0 8 1 6 5 1 5-4-2-5-4h-7l-3 2-2 4-2-3 1-4 4-3z" fill="#56914A"/>
<path transform="translate(710,1191)" d="m0 0 4 1 5 10v6l-3-1-3-7v-3l-3 3-2 4-2-1 1-7z" fill="#43713F"/>
<path transform="translate(339,1024)" d="m0 0h1v20l-3-3-4-2-1-4-2-2 1-2 8-1z" fill="#315736"/>
<path transform="translate(1366,1043)" d="m0 0 2 1 5 13-1 4-5-1-3-9 1-6z" fill="#335937"/>
<path transform="translate(1235,1191)" d="m0 0 5 1 2 5v4h-3l-1-3-2-1-3 9-2-3 1-6z" fill="#43713F"/>
<path transform="translate(1443,1049)" d="m0 0h2l3 8v3l-4 1-5-5-2-4 4-1h2z" fill="#325937"/>
<path transform="translate(1424,1199)" d="m0 0h1v12l4 11-4-2-4-6-1-9 3-3z" fill="#4A8249"/>
<path transform="translate(627,1214)" d="m0 0 4 2 5 4 7 1 2 1-1 3h-8l-6-4-3-4z" fill="#508549"/>
<path transform="translate(460,1214)" d="m0 0 4 2 4 4 10 2-1 3h-8l-7-4-2-3z" fill="#4B8447"/>
<path transform="translate(1646,1190)" d="m0 0 2 1-2 5-6 10-2-2-2 3 1-6 7-10z" fill="#477E45"/>
<path transform="translate(871,1217)" d="m0 0 4 2 5 2 8 1v2l-3 1h-7l-6-3-3-4z" fill="#4D8047"/>
<path transform="translate(1586,1191)" d="m0 0h21v3h-19z" fill="#447947"/>
<path transform="translate(991,1191)" d="m0 0h3l-1 4-5 9-4 1 1-6z" fill="#447644"/>
<path transform="translate(1555,1201)" d="m0 0 4 4 5 7-2 4-5-5-5-8h2z" fill="#528D4A"/>
<path transform="translate(1292,1108)" d="m0 0 7 1 6 1v1h-29v-1z" fill="#436647"/>
<path transform="translate(1215,644)" d="m0 0h1l1 6v11l-2 12h-1v-20z" fill="#436E47"/>
<path transform="translate(548,1206)" d="m0 0h13l-1 4-14-1z" fill="#85B74A"/>
<path transform="translate(794,1007)" d="m0 0h5l1 4-1 1h-10l1-4z" fill="#436547"/>
<path transform="translate(1219,678)" d="m0 0 4 5-1 8-5-2z" fill="#436847"/>
<path transform="translate(766,1215)" d="m0 0h2l-2 5-6 4h-4v-2h3v-2l6-4z" fill="#3D6C3E"/>
<path transform="translate(1013,1217)" d="m0 0 4 2 9 2v1h-5v2l-5-1-3-2z" fill="#508848"/>
<path transform="translate(1033,1220)" d="m0 0 1 2-7 3h-6v-3z" fill="#436F43"/>
<path transform="translate(1308,1191)" d="m0 0h11v2l-2 1h-10z" fill="#448049"/>
<path transform="translate(512,1190)" d="m0 0 2 1v3l-2 1-2 7h-2v-6z" fill="#3A673C"/>
<path transform="translate(1427,1217)" d="m0 0 6 3 7 1v1h-6v2l-5-1-2-3z" fill="#58924A"/>
<path transform="translate(998,490)" d="m0 0 1 4-4 3-3-1 1-4z" fill="#447A49"/>
<path transform="translate(627,1214)" d="m0 0 4 2 2 3v2l4 2h-5l-5-6z" fill="#437A45"/>
<path transform="translate(1109,1215)" d="m0 0h2l2 5h2l1-2 2 4v3l-4-1z" fill="#4D8547"/>
<path transform="translate(1093,659)" d="m0 0h2l-2 4-6 4h-2l1-3z" fill="#3D6B42"/>
<path transform="translate(1443,1221)" d="m0 0h2v2l-5 2h-6v-3h7z" fill="#467044"/>
<path transform="translate(669,1208)" d="m0 0h7v2l4 1-4 1-7-1z" fill="#457846"/>
<path transform="translate(1212,570)" d="m0 0 2 1-8 8v-3zm-8 9 2 1-1 4v-2h-2z" fill="#3A603F"/>
</svg>
