<?xml version="1.0" standalone="no"?>
<!DOCTYPE svg PUBLIC "-//W3C//DTD SVG 20010904//EN"
 "http://www.w3.org/TR/2001/REC-SVG-20010904/DTD/svg10.dtd">
<svg version="1.0" xmlns="http://www.w3.org/2000/svg"
 width="1024.000000pt" height="1024.000000pt" viewBox="0 0 1024.000000 1024.000000"
 preserveAspectRatio="xMidYMid meet">

<g transform="translate(0.000000,1024.000000) scale(0.100000,-0.100000)"
fill="#000000" stroke="none">
<path d="M0 5120 l0 -5120 5120 0 5120 0 0 5120 0 5120 -5120 0 -5120 0 0
-5120z m5459 2275 c733 -106 1356 -554 1693 -1215 91 -178 169 -420 215 -664
20 -113 29 -436 14 -566 -47 -416 -212 -803 -489 -1150 -345 -433 -840 -717
-1422 -815 -150 -26 -467 -31 -628 -11 -737 94 -1324 499 -1708 1177 -193 340
-290 807 -255 1217 22 254 90 511 196 747 140 311 439 672 724 875 296 210
580 330 932 395 201 37 515 41 728 10z"/>
<path d="M4870 7145 c-324 -44 -666 -181 -915 -365 -427 -315 -708 -767 -801
-1285 -35 -197 -28 -484 17 -710 97 -486 416 -960 842 -1253 197 -136 478
-253 737 -307 169 -36 447 -45 627 -21 635 84 1158 429 1487 981 99 166 158
306 206 490 41 154 51 220 60 380 19 348 -46 666 -200 981 -239 489 -641 842
-1165 1021 -270 92 -617 126 -895 88z m334 -425 c101 -15 183 -59 260 -140 70
-75 101 -140 117 -245 5 -33 9 -221 9 -417 l0 -357 413 -3 412 -3 66 -32 c313
-155 316 -628 4 -774 -87 -41 -174 -48 -577 -49 l-328 0 0 -324 c0 -178 -5
-347 -10 -377 -42 -218 -219 -358 -455 -360 -187 -1 -338 99 -408 271 -21 53
-22 68 -25 422 l-3 367 -412 3 c-404 3 -413 4 -470 26 -71 29 -163 112 -200
181 -16 28 -35 83 -43 123 -44 206 54 412 235 497 l56 26 415 5 415 5 5 420
c5 412 6 421 29 479 28 70 121 168 199 209 50 27 150 55 202 56 14 0 56 -4 94
-9z m-1208 -334 c167 -44 276 -175 290 -348 l7 -78 -45 0 c-174 0 -314 83
-382 226 -30 63 -60 179 -52 200 7 19 114 18 182 0z m2454 -19 c0 -79 -57
-212 -120 -281 -69 -75 -195 -125 -312 -126 -46 0 -48 1 -48 28 1 54 30 163
57 213 41 75 120 143 195 168 85 27 94 29 166 30 l62 1 0 -33z m-2160 -2084
c0 -53 -26 -156 -51 -204 -30 -60 -102 -127 -167 -156 -45 -21 -78 -27 -159
-31 -121 -5 -119 -8 -77 110 50 138 98 206 179 254 50 29 173 63 233 63 l42 1
0 -37z m1797 26 c130 -17 233 -80 289 -175 32 -55 74 -176 74 -215 l0 -29 -73
0 c-193 0 -321 84 -376 248 -25 73 -29 182 -7 182 8 0 50 -5 93 -11z"/>
</g>
</svg>
