<?xml version="1.0" encoding="UTF-8"?>
<svg version="1.1" viewBox="0 0 1024 1024" width="1024" height="1024" xmlns="http://www.w3.org/2000/svg">
<path transform="translate(0)" d="m0 0h1024v1024h-1024z" fill="#DEF3F1"/>
<path transform="translate(242,445)" d="m0 0h41l4 4v29l4-1h14l10 5 8 8 3 6 1 5v11l-4 10-6 7-17 12-7 7-8 14-4 13-6 3-30-1-3-3-5-16-6-10-7-7-14-9-5-4-6-9-2-8 1-13 5-9 4-5 6-4 10-3h7l7 2 1-30z" fill="#AEDCD8"/>
<path transform="translate(224,490)" d="m0 0 9 1 8 5 5 6 11 7 23 12 12 7v3l-9 9-8 13-5 11h-17l-5-12-6-10-9-10-10-7-8-5-4-6-1-3v-8l3-6 5-5z" fill="#DEF3F1"/>
<path transform="translate(250,458)" d="m0 0h24l1 35 3 3 6-1 6-4 3-1h9l6 3 5 5 1 3v9l-3 6-5 5-4-1-22-12-21-11-8-7-1-2z" fill="#DEF3F1"/>
<path transform="translate(660,499)" d="m0 0h18l8 4 3 5 1 4v31l-2 2h-28l-6-4-2-3v-13l2-4 8-4h18l-2-6-3-2h-18l-2-2v-5z" fill="#AEDCD8"/>
<path transform="translate(423,499)" d="m0 0h14l7 3 4 6 1 3v11l-5 5h-25l2 7 2 1 21 1 2 1v6l-3 2h-23l-6-3-4-6-1-7v-12l2-9 3-5z" fill="#AEDCD8"/>
<path transform="translate(754,499)" d="m0 0h12l7 3 5 6 1 4v9l-3 5-2 1h-25l2 6 3 2 20 1 2 2-1 5-3 2h-22l-6-3-4-6-1-6v-14l2-9 4-5z" fill="#AEDCD8"/>
<path transform="translate(463,499)" d="m0 0h17l7 3 4 5 1 2v34l-2 2h-6l-2-1-2 1h-17l-6-3-3-7v-7l3-7 5-3 4-1h17l-2-7-5-1h-16l-2-2v-5z" fill="#AEDCD8"/>
<path transform="translate(365,480)" d="m0 0h5l2 2v19l7-2h10l7 3 5 6 1 6v28l-2 3h-6l-2-2-1-32-3-2h-10l-5 3-1 31-2 2h-6l-2-2v-54l1-7z" fill="#AEDCD8"/>
<path transform="translate(560,480)" d="m0 0 5 1 2 3 1 16 4-1h12l8 4 3 4 1 4v32l-2 2h-6l-1-1-2-33-4-2h-7l-7 2v31l-2 3h-6l-2-2v-61z" fill="#AEDCD8"/>
<path transform="translate(607,480)" d="m0 0 7 1 1 2 1 17 4-1h14l6 3 4 7v34l-2 2h-6l-1-1-1-31-4-4h-9l-6 2v31l-2 3h-6l-2-2v-61z" fill="#AEDCD8"/>
<path transform="translate(790,499)" d="m0 0 6 1 4-1h14l8 4 3 5 1 4v30l-2 3h-7l-1-2-1-33-4-1h-9l-5 3-1 31-2 2h-6l-2-2v-41l1-2z" fill="#AEDCD8"/>
<path transform="translate(697,499)" d="m0 0 5 1 6 13 6 16 1 1 11-28 2-2h7l1 6-12 29-5 10-6 1-4-2-6-14-10-26 2-4z" fill="#AEDCD8"/>
<path transform="translate(530,485)" d="m0 0 5 1 1 1 1 12h11l3 3v5l-7 2h-8l1 22 1 4 2 1 10 1 1 6-2 2h-14l-6-4-2-5v-27h-8l-2-2v-6l1-1h9v-12z" fill="#AEDCD8"/>
<path transform="translate(504,480)" d="m0 0 5 1 1 1 1 51 2 3 7 1 2 2-1 5-3 2-10-1-6-5-1-2v-56z" fill="#AEDCD8"/>
<path transform="translate(466,526)" d="m0 0h17v6l-3 4-4 1h-7l-5-3v-6z" fill="#DEF3F1"/>
<path transform="translate(425,508)" d="m0 0h9l5 3 1 6-1 1h-20v-6l3-3z" fill="#DEF3F1"/>
<path transform="translate(664,526)" d="m0 0h16v7l-4 3-9 1-5-2-1-1 1-7z" fill="#DEF3F1"/>
<path transform="translate(758,508)" d="m0 0 8 1 3 3 1 5-1 1h-20l1-6 3-3z" fill="#DEF3F1"/>
</svg>
